<?xml version="1.0" encoding="utf-8"?>
<!-- Generator: Adobe Illustrator 22.1.0, SVG Export Plug-In . SVG Version: 6.00 Build 0)  -->
<svg version="1.1" id="Layer_1" xmlns="http://www.w3.org/2000/svg" xmlns:xlink="http://www.w3.org/1999/xlink" x="0px" y="0px"
	 viewBox="0 0 488.7 488.7" style="enable-background:new 0 0 488.7 488.7;" xml:space="preserve">
<style type="text/css">
	.st0{fill:#999DA5;}
	.st1{fill:#2C2F33;}
</style>
<g>
	<path class="st0" d="M379.5,269.7l-17.3-10c-3.6-2.1-5.7-6.1-5.5-10.2c0.3-6,0.1-12-0.5-17.9c-0.5-4.1,1.3-8.1,4.8-10.5l17-11.5
		c4.2-2.8,5.7-8.2,3.6-12.8l-5.6-12.2l-5.6-12.2c-2.1-4.5-7.1-6.9-12-5.6l-19.2,5.4c-4.1,1.1-8.4-0.2-11.3-3.3
		c-4-4.4-8.3-8.5-13-12.2c-3.2-2.6-4.9-6.7-4.1-10.8l3.8-20.2c0.9-5-1.9-9.9-6.5-11.6l-12.6-4.7l-12.6-4.7c-4.8-1.8-10,0.1-12.6,4.5
		l-9.9,17.2c-2.1,3.7-6.1,5.7-10.4,5.5c-6.3-0.4-12.4-0.2-18.5,0.6c-4.2,0.5-8.3-1.3-10.6-4.7L209.5,111c-2.8-4.2-8.2-5.7-12.8-3.6
		l-12.2,5.6l-12.2,5.6c-4.5,2.1-6.9,7.1-5.6,12l5.2,19.6c1.1,4-0.2,8.3-3.3,11.1c-4.4,4-8.5,8.4-12.3,13.2
		c-2.6,3.3-6.7,4.9-10.8,4.1l-19.9-3.8c-4.8-0.9-9.7,1.8-11.7,6.3l-4.7,12.6l-4.7,12.6c-1.8,4.8,0.1,10,4.5,12.6l17.5,10.1
		c3.6,2.1,5.7,6,5.5,10.2c-0.3,6.1-0.1,12.1,0.6,18c0.5,4.1-1.3,8.2-4.7,10.5l-16.6,11.2c-4.2,2.8-5.7,8.2-3.6,12.8l5.6,12.2
		l5.6,12.2c2.1,4.5,7.1,6.9,12,5.6l19.6-5.2c4-1.1,8.3,0.2,11.1,3.3c4,4.4,8.4,8.5,13.2,12.3c3.3,2.6,4.9,6.7,4.1,10.8l-3.8,19.9
		c-0.9,5,1.9,9.9,6.5,11.6l12.6,4.7l12.6,4.7c4.8,1.8,10-0.1,12.6-4.5l10.1-17.5c2.1-3.6,6-5.7,10.2-5.5c5.7,0.2,11.5,0,17.1-0.6
		c4.1-0.5,8.2,1.3,10.6,4.8l11.5,17c2.8,4.2,8.2,5.7,12.8,3.6l12.2-5.6l12.2-5.6c4.5-2.1,6.9-7.1,5.6-12l-5.2-19.3
		c-1.1-4.1,0.2-8.3,3.4-11.2c4.4-4,8.5-8.3,12.3-13c2.6-3.2,6.7-4.9,10.8-4.1l20.2,3.8c5,0.9,9.9-1.9,11.6-6.5l4.7-12.6l4.7-12.6
		C385.8,277.5,383.8,272.2,379.5,269.7z M290.5,260.4c-9.1,25.5-37,38.8-62.5,29.7c-25.5-9.1-38.8-37-29.7-62.5s37-38.8,62.5-29.7
		C286.2,207,299.5,235,290.5,260.4z"/>
	<path class="st1" d="M241.5,0.2C176.3,1,115.2,27.1,69.6,73.7C37,107.2,14.7,148.9,5.2,194.4c-9.2,44.3-6.1,90.2,9.2,132.7
		c1.3,3.7,4.8,6,8.5,6c1,0,2.1-0.2,3.1-0.5c4.7-1.7,7.2-6.9,5.5-11.6C2,238.8,21.6,148.9,82.6,86.4c42.2-43.2,98.7-67.3,159.1-68
		s117.4,22.2,160.6,64.4l1.4,1.3l-27.3,0.3c-5,0.1-9,4.2-9,9.2c0.1,5,4.1,9,9.1,9h0.1l49.2-0.6c5-0.1,9-4.2,9-9.2l-0.6-49.2
		c-0.1-5-4.1-9-9.1-9H425c-5,0.1-9,4.2-9,9.2l0.3,27.3l-1.4-1.3C368.4,24.2,306.7-0.5,241.5,0.2z"/>
	<path class="st1" d="M53.9,396.1l0.6,49.2c0.1,5,4.1,9,9.1,9h0.1c5-0.1,9-4.2,9-9.2l-0.3-27.3l1.4,1.3
		c47.4,46.4,109.1,69.5,170.7,69.4c63.5,0,126.9-24.5,174.7-73.4c32.7-33.4,54.9-75.1,64.4-120.7c9.2-44.3,6.1-90.2-9.2-132.7
		c-1.7-4.7-6.9-7.2-11.6-5.5s-7.2,6.9-5.5,11.6c29.5,82.2,9.9,172.1-51.1,234.6c-87.1,89.2-230.6,90.8-319.7,3.7l-1.4-1.3l27.3-0.3
		c5-0.1,9-4.2,9-9.2c-0.1-5-4.1-9-9.1-9h-0.1L63,386.9C57.8,387,53.8,391.1,53.9,396.1z"/>
	<path class="st1" d="M149.3,168.8c-0.5,0.6-1.3,0.9-2,0.8l-19.9-3.9c-1.2-0.2-2.3-0.3-3.5-0.3c-7.9,0-15,4.7-18.1,11.9
		c-0.1,0.1-0.1,0.3-0.2,0.4l-9.4,25.2c-3.3,8.9,0.2,18.8,8.5,23.6l17.5,10.1c0.6,0.4,1,1.1,1,1.9c-0.3,6.5-0.1,13.1,0.7,19.5
		c0.1,0.8-0.2,1.6-0.8,2l-16.9,11.4c-7.8,5.3-10.6,15.4-6.7,24l11.1,24.3c3.1,6.9,10,11.3,17.6,11.3c1.7,0,3.3-0.2,5-0.7l19.6-5.2
		c0.7-0.2,1.5,0.1,2,0.7c4.3,4.8,9.2,9.2,14.3,13.3c0.6,0.5,0.9,1.3,0.8,2l-3.8,19.9c-1.8,9.3,3.4,18.5,12.3,21.8l25.2,9.4
		c2.2,0.8,4.5,1.2,6.8,1.2c6.9,0,13.3-3.7,16.8-9.7l10.1-17.5c0.4-0.6,1.1-1,2-1l0,0c6.1,0.3,12.4,0,18.5-0.6c0.8-0.1,1.6,0.2,2,0.8
		l11.5,17c3.6,5.3,9.6,8.5,16,8.5c2.8,0,5.5-0.6,8-1.7l24.3-11.1c8.6-3.9,13.1-13.4,10.6-22.6l-5.2-19.3c-0.2-0.7,0.1-1.5,0.7-2.1
		c4.9-4.4,9.3-9.1,13.2-14.1c0.5-0.6,1.3-1,2-0.8l20.2,3.8c1.2,0.2,2.4,0.3,3.6,0.3c8.1,0,15.4-5.1,18.2-12.6l9.4-25.2
		c3.3-8.9-0.2-18.8-8.5-23.6l-17.3-10c-0.6-0.4-1-1.1-1-1.9c0.3-6.4,0.1-13-0.6-19.4c-0.1-0.8,0.2-1.5,0.8-2l17-11.5
		c7.8-5.3,10.6-15.4,6.7-24l-11.1-24.3c-3.1-6.9-10-11.3-17.6-11.3c-1.7,0-3.3,0.2-5.1,0.7l-19.2,5.4c-0.7,0.2-1.5-0.1-2.1-0.7
		c-4.4-4.8-9.1-9.3-14-13.2c-0.7-0.5-1-1.3-0.8-2l3.8-20.2c1.8-9.3-3.4-18.5-12.3-21.8l-25.2-9.4c-2.2-0.8-4.5-1.2-6.8-1.2
		c-6.9,0-13.3,3.7-16.8,9.7l-10,17.2c-0.4,0.6-1,1-2,1l0,0c-6.7-0.4-13.5-0.2-20.1,0.6c-0.8,0.1-1.6-0.2-2.1-0.8L216.6,106
		c-3.6-5.3-9.6-8.5-16-8.5c-2.8,0-5.5,0.6-8,1.7l-24.3,11.1c-8.6,3.9-13.1,13.4-10.6,22.6l5.2,19.6c0.2,0.7-0.1,1.5-0.7,2
		C157.8,158.8,153.3,163.6,149.3,168.8z M163.5,180c3.4-4.4,7.2-8.5,11.3-12.1c5.6-5.1,7.9-12.8,6-20.1l-5.2-19.6
		c-0.2-0.6,0.1-1.2,0.6-1.4l24.3-11.1c0.2-0.1,0.3-0.1,0.5-0.1s0.7,0,1,0.5l11.4,16.8c4.2,6.2,11.6,9.6,19.2,8.7
		c5.6-0.7,11.3-0.9,16.9-0.5c7.7,0.5,15-3.5,18.7-10l9.9-17.2c0.3-0.6,0.9-0.8,1.6-0.6l25.2,9.4c0.6,0.2,0.9,0.9,0.8,1.4l-3.8,20.2
		c-1.4,7.3,1.4,14.8,7.3,19.6c4.2,3.3,8.2,7.1,11.9,11.2c3.9,4.3,9.3,6.7,15,6.7c1.8,0,3.6-0.2,5.4-0.7l19.1-5.3
		c0.5-0.1,1.1,0,1.5,0.6l11.1,24.3c0.2,0.5,0,1.2-0.4,1.5l-17,11.5c-6.2,4.2-9.5,11.5-8.7,19c0.6,5.5,0.8,11,0.5,16.5
		c-0.4,7.6,3.4,14.8,10,18.6l17.3,10c0.6,0.3,0.8,0.9,0.6,1.6l-9.4,25.2c-0.2,0.5-0.9,0.9-1.4,0.8l-20.2-3.8
		c-1.2-0.2-2.5-0.4-3.7-0.4c-6.2,0-11.9,2.8-15.8,7.7c-3.3,4.2-7.1,8.2-11.3,12c-5.7,5.2-8,12.9-6,20.2l5.2,19.3
		c0.2,0.6-0.1,1.2-0.6,1.4L288,372.9c-0.2,0.1-0.3,0.1-0.5,0.1s-0.7,0-1-0.5l-11.5-17c-4.2-6.1-11.5-9.6-19.1-8.7
		c-5.2,0.6-10.5,0.8-15.7,0.5c-7.6-0.3-14.7,3.6-18.5,10.1l-10.1,17.5c-0.3,0.6-0.9,0.8-1.6,0.6l-25.2-9.4c-0.6-0.2-0.9-0.9-0.8-1.4
		l3.8-19.9c1.4-7.4-1.4-14.9-7.4-19.7c-4.4-3.4-8.4-7.2-12.1-11.3c-3.8-4.2-9.3-6.6-15-6.6c-1.7,0-3.5,0.2-5.2,0.7l-19.6,5.2
		c-0.5,0.1-1.1,0-1.5-0.6l-11.1-24.3c-0.2-0.5,0-1.2,0.4-1.5l16.8-11.4c6.2-4.2,9.6-11.6,8.7-19.1c-0.6-5.4-0.8-11-0.6-16.5
		c0.3-7.6-3.5-14.7-10-18.4l-17.5-10.1c-0.6-0.3-0.8-0.9-0.6-1.6l9.3-24.9c0.3-0.5,0.9-0.9,1.4-0.9c0.1,0,0.1,0,0.1,0l19.9,3.8
		c1.2,0.2,2.5,0.4,3.8,0.4C153.8,187.7,159.6,184.9,163.5,180z"/>
	<path class="st1" d="M224.9,298.7c6.3,2.2,12.8,3.4,19.4,3.4c24.5,0,46.5-15.5,54.7-38.6c10.7-30.1-5.1-63.4-35.2-74.1
		c-6.3-2.2-12.8-3.4-19.4-3.4c-24.5,0-46.5,15.5-54.7,38.6C179,254.8,194.8,288,224.9,298.7z M206.8,230.7
		c5.6-15.9,20.7-26.5,37.6-26.5c4.5,0,9,0.8,13.4,2.3c20.7,7.4,31.6,30.2,24.2,50.9c-5.6,15.9-20.7,26.5-37.6,26.5
		c-4.5,0-9-0.8-13.4-2.3C210.3,274.3,199.4,251.4,206.8,230.7z"/>
</g>
</svg>
