<?xml version="1.0" encoding="utf-8"?>
<!-- Generator: Adobe Illustrator 22.1.0, SVG Export Plug-In . SVG Version: 6.00 Build 0)  -->
<svg version="1.1" id="Layer_1" xmlns="http://www.w3.org/2000/svg" xmlns:xlink="http://www.w3.org/1999/xlink" x="0px" y="0px"
	 viewBox="0 0 488.8 488.8" style="enable-background:new 0 0 488.8 488.8;" xml:space="preserve">
<style type="text/css">
	.st0{fill:#999DA5;}
	.st1{fill:#2C2F33;}
</style>
<g>
	<g>
		<path id="XMLID_1190_" class="st0" d="M304.3,479.6V317c0-25.4,12-49.2,31.9-65.1c33.4-26.7,54.7-67.7,54.7-113.7
			c0-55.6-31.2-103.9-77.1-128.5c-4-2.1-8.8,0.7-8.8,5.2v85.7c0,24.9-20.4,45.2-45.4,45.2h-38c-24.9,0-45.4-20.3-45.4-45.2V19.5
			c0-4.7-5.1-7.5-9.1-5c-41.4,25.8-69,71.5-69,123.7c0,43.8,19.4,83,50,109.7c18.1,15.7,28.8,38.2,28.8,62.1v169.5"/>
		<path class="st1" d="M318,1.8c-4.7-2.5-10.3-2.4-14.9,0.3s-7.3,7.5-7.3,12.9v85.7c0,19.9-16.3,36.2-36.3,36.2h-38
			c-20,0-36.3-16.2-36.3-36.2v-85c0-5.5-3-10.5-7.8-13.1s-10.7-2.5-15.3,0.5C117.7,31.2,89,84.3,89,138.3
			c0,44.6,19.4,87.1,53.1,116.5c16.4,14.3,25.7,34.4,25.7,55.3v169.5c0,5,4.1,9.1,9.1,9.1s9.1-4.1,9.1-9.1V310
			c0-26.1-11.6-51.2-31.9-69c-29.8-26-46.9-63.5-46.9-102.9c0-45.9,23.4-91.1,59.9-116.7v79.1c0,29.9,24.4,54.3,54.4,54.3h38
			c30,0,54.4-24.3,54.4-54.3V20.3c42,24.5,67.8,69.3,67.8,117.9c0,41.6-18.7,80.5-51.3,106.6C308,262.7,295.1,289,295.1,317v162.6
			c0,5,4.1,9.1,9.1,9.1s9.1-4.1,9.1-9.1V316.9c0-22.4,10.4-43.5,28.5-58c36.9-29.6,58.1-73.6,58.1-120.7
			C399.9,81.1,368.5,28.8,318,1.8z"/>
		<path class="st1" d="M241.3,316.2c-5,0-9.1,4.1-9.1,9.1v154.4c0,5,4.1,9.1,9.1,9.1s9.1-4.1,9.1-9.1V325.2
			C250.3,320.2,246.3,316.2,241.3,316.2z"/>
	</g>
</g>
</svg>
