<svg id="Layer_1" data-name="Layer 1" xmlns="http://www.w3.org/2000/svg" viewBox="0 0 75 75"><defs><style>.cls-1{fill:none;}.cls-1,.cls-3{stroke:#0047ba;stroke-miterlimit:10;stroke-width:2px;}.cls-2,.cls-3{fill:#0047ba;}.cls-4{fill:#fff;}</style></defs><title>iconslucknew</title><path class="cls-1" d="M23.37,42.85V24.69A1.64,1.64,0,0,1,25,23H50a1.64,1.64,0,0,1,1.59,1.69V59.27A1.64,1.64,0,0,1,50,61H25a1.64,1.64,0,0,1-1.59-1.69V42.85"/><path class="cls-1" d="M48.15,56.32a.91.91,0,0,1-.91.91H40.86a.91.91,0,0,1-.91-.91V49.93a.91.91,0,0,1,.91-.91h6.38a.91.91,0,0,1,.91.91Z"/><path class="cls-2" d="M43.71,51.86h-.33a.37.37,0,0,1-.39-.39.39.39,0,0,1,.39-.4h.81a.38.38,0,0,1,.38.41v3.25a.41.41,0,0,1-.43.45.41.41,0,0,1-.43-.45Z"/><path class="cls-1" d="M35.65,56.32a.91.91,0,0,1-.91.91H28.36a.91.91,0,0,1-.91-.91V49.93a.91.91,0,0,1,.91-.91h6.38a.91.91,0,0,1,.91.91Z"/><path class="cls-2" d="M32.51,54.43c.25,0,.45.11.45.37a.37.37,0,0,1-.41.38H30.66c-.25,0-.45-.12-.45-.38a.52.52,0,0,1,.13-.29c.47-.56,1-1.07,1.42-1.69a.94.94,0,0,0,.19-.53.42.42,0,0,0-.4-.44c-.66,0-.34.92-.89.92a.39.39,0,0,1-.41-.41,1.33,1.33,0,0,1,1.33-1.29,1.18,1.18,0,0,1,1.26,1.18c0,.79-.88,1.57-1.36,2.18Z"/><path class="cls-1" d="M47.55,33.82a.91.91,0,0,1-.91.91H40.26a.91.91,0,0,1-.91-.91V27.43a.91.91,0,0,1,.91-.91h6.38a.91.91,0,0,1,.91.91Z"/><path class="cls-2" d="M43.11,30a2.12,2.12,0,0,1,.43-.06,1.16,1.16,0,0,1,1.17,1.21,1.41,1.41,0,0,1-1.5,1.57c-.4,0-1.25-.27-1.25-.76a.4.4,0,0,1,.39-.39c.23,0,.5.36.88.36a.67.67,0,0,0,.6-.74.51.51,0,0,0-.54-.57c-.33,0-.38.19-.67.19a.32.32,0,0,1-.34-.27,1.11,1.11,0,0,1,0-.19l.14-1.2c.06-.44.17-.54.44-.54h1.37a.39.39,0,1,1,0,.78H43.2Z"/><path class="cls-1" d="M35.05,33.82a.91.91,0,0,1-.91.91H27.76a.91.91,0,0,1-.91-.91V27.43a.91.91,0,0,1,.91-.91h6.38a.91.91,0,0,1,.91.91Z"/><path class="cls-2" d="M30.43,31.29a.53.53,0,0,0,.53.58.58.58,0,0,0,0-1.16.53.53,0,0,0-.53.58m-.87,0A4.48,4.48,0,0,1,31,28.75a1.41,1.41,0,0,1,.18-.14.28.28,0,0,1,.17,0,.48.48,0,0,1,.39.41.44.44,0,0,1-.11.23c-.23.27-.59.63-.77.89h0a1,1,0,0,1,.35-.07,1.22,1.22,0,0,1,1.17,1.25A1.39,1.39,0,0,1,31,32.68a1.36,1.36,0,0,1-1.4-1.39"/><path class="cls-1" d="M47.85,45.17a.91.91,0,0,1-.91.91H40.56a.91.91,0,0,1-.91-.91V38.79a.91.91,0,0,1,.91-.91h6.38a.91.91,0,0,1,.91.91Z"/><path class="cls-2" d="M44.83,41a1,1,0,0,1-.46.85,1.12,1.12,0,0,1,.68,1A1.32,1.32,0,0,1,43.65,44a1.26,1.26,0,0,1-1.34-1,.42.42,0,0,1,.43-.38c.38,0,.29.65.92.65a.51.51,0,0,0,.52-.51c0-.78-.94-.21-.94-.87s.79-.19.79-.81a.37.37,0,0,0-.4-.37c-.53,0-.46.55-.84.55a.39.39,0,0,1-.36-.42c0-.43.59-.9,1.21-.9a1.11,1.11,0,0,1,1.19,1"/><path class="cls-3" d="M35.35,45.17a.91.91,0,0,1-.91.91H28.06a.91.91,0,0,1-.91-.91V38.79a.91.91,0,0,1,.91-.91h6.38a.91.91,0,0,1,.91.91Z"/><path class="cls-4" d="M31.23,40.81h0l-.75,1.57h.77V40.81Zm-1.36,2.31a.36.36,0,0,1-.39-.33.37.37,0,0,1,.08-.25l1.25-2.28a.58.58,0,0,1,.58-.33.64.64,0,0,1,.64.72v1.73h.1a.36.36,0,0,1,.39.37.37.37,0,0,1-.39.37H32v.47c0,.3-.11.44-.4.44s-.4-.14-.4-.44v-.47Z"/></svg>