<svg id="Layer_1" data-name="Layer 1" xmlns="http://www.w3.org/2000/svg" viewBox="0 0 75 75"><defs><style>.cls-1{fill:#0047ba;}.cls-2{fill:none;stroke-miterlimit:10;stroke-width:2.08px;}.cls-2,.cls-3{stroke:#0047ba;}.cls-3{fill:#fff;stroke-linecap:round;stroke-linejoin:round;stroke-width:2px;}</style></defs><title>iconslucknew</title><path class="cls-1" d="M60.78,15a1.36,1.36,0,0,1,.94.3V60.8a1.41,1.41,0,0,1-.94.3H14.22a1.41,1.41,0,0,1-.94-.3V15.33a1.36,1.36,0,0,1,.94-.3H60.78m0-2H14.22c-1.64,0-3,1-3,2.23V60.89c0,1.23,1.33,2.23,3,2.23H60.78c1.64,0,3-1,3-2.23V15.23c0-1.23-1.33-2.23-3-2.23Z"/><path class="cls-1" d="M54,20.69a2,2,0,0,1,1.27.38V61.13h-36V21.07a2,2,0,0,1,1.27-.38H54m0-2H20.52c-1.8,0-3.27,1-3.27,2.25V63.13h40V20.94c0-1.24-1.47-2.25-3.27-2.25Z"/><line class="cls-2" x1="24.75" y1="63" x2="24.75" y2="20.5"/><line class="cls-2" x1="49.75" y1="63" x2="49.75" y2="20.5"/><path class="cls-1" d="M60.48,36.9c.07.11-.22.19-.34.19h-1c-.11,0-.4-.08-.34-.19l.69-1.32a.22.22,0,0,1,.34,0Z"/><path class="cls-1" d="M58.76,38.41c-.06-.11.23-.2.34-.2h1c.12,0,.41.09.34.2l-.69,1.31a.22.22,0,0,1-.34,0Z"/><rect class="cls-3" x="27.25" y="53.78" width="20" height="7.59"/><rect class="cls-3" x="29.75" y="42.4" width="15" height="10.84"/><rect class="cls-3" x="32.25" y="31.56" width="10" height="10.84"/></svg>