<svg id="Layer_1" data-name="Layer 1" xmlns="http://www.w3.org/2000/svg" viewBox="0 0 75 75"><defs><style>.cls-1{fill:#fff;}.cls-2{fill:#0047ba;}.cls-3{fill:none;stroke:#0047ba;stroke-miterlimit:10;stroke-width:2px;}</style></defs><title>iconslucknew</title><rect class="cls-1" width="75" height="75"/><path class="cls-2" d="M54.91,16.5a.27.27,0,0,1,.27.27V63.23a.27.27,0,0,1-.27.27H19.27a.27.27,0,0,1-.27-.27V16.77a.27.27,0,0,1,.27-.27H54.91m0-2H19.27A2.27,2.27,0,0,0,17,16.77V63.23a2.27,2.27,0,0,0,2.27,2.27H54.91a2.27,2.27,0,0,0,2.27-2.27V16.77a2.27,2.27,0,0,0-2.27-2.27Z"/><path class="cls-2" d="M48.73,22.68A.28.28,0,0,1,49,23V63.5H25.18V23a.28.28,0,0,1,.27-.27H48.73m0-2H25.45A2.27,2.27,0,0,0,23.18,23V65.5H51V23a2.27,2.27,0,0,0-2.27-2.27Z"/><line class="cls-3" x1="37.09" y1="63.95" x2="37.09" y2="21.02"/><path class="cls-2" d="M54.11,37.51c.07.12,0,.22-.12.22H52.18c-.14,0-.19-.1-.12-.22L53,36.07c.07-.12.19-.12.27,0Z"/><path class="cls-2" d="M52.06,39.07c-.07-.12,0-.22.12-.22H54c.14,0,.19.1.12.22l-.89,1.43c-.08.12-.2.12-.27,0Z"/></svg>