<svg id="Layer_1" data-name="Layer 1" xmlns="http://www.w3.org/2000/svg" viewBox="0 0 75 75"><defs><style>.cls-1,.cls-2{fill:#fff;}.cls-2,.cls-3{stroke:#0047ba;stroke-width:2px;}.cls-2{stroke-miterlimit:10;}.cls-3{fill:none;stroke-linecap:round;stroke-linejoin:round;}</style></defs><title>iconslucknew</title><rect class="cls-1" width="75" height="75"/><path class="cls-2" d="M11.79,53.37a4.73,4.73,0,0,1,0-9.45h8L43.81,17.06a4.67,4.67,0,0,1,3.47-1.56h10a4.73,4.73,0,0,1,0,9.45h-8L25.3,51.81a4.67,4.67,0,0,1-3.47,1.56Z"/><path class="cls-2" d="M10.74,62.38a5.14,5.14,0,0,1,0-10.28H19.4L45.58,22.87a5.07,5.07,0,0,1,3.78-1.69H60.28a5.14,5.14,0,0,1,0,10.28H51.62L25.44,60.69a5.11,5.11,0,0,1-3.78,1.69Z"/><line class="cls-3" x1="30.91" y1="47.82" x2="45.13" y2="32.21"/></svg>