<svg id="Layer_1" data-name="Layer 1" xmlns="http://www.w3.org/2000/svg" viewBox="0 0 75 75"><defs><style>.cls-1{fill:#fff;}.cls-2,.cls-3,.cls-4,.cls-5,.cls-6{fill:none;stroke:#0047ba;}.cls-2,.cls-4,.cls-6{stroke-linecap:round;}.cls-2,.cls-3{stroke-miterlimit:10;}.cls-2,.cls-3,.cls-4,.cls-5{stroke-width:2px;}.cls-4{stroke-linejoin:bevel;}.cls-5,.cls-6{stroke-linejoin:round;}.cls-6{stroke-width:1.96px;}</style></defs><title>iconslucknew</title><rect class="cls-1" width="75" height="75"/><path class="cls-2" d="M52.88,28.12l-1.64-1.41-.37-.49L46.74,18a1.41,1.41,0,0,0-1.23-.81H28.78a1.32,1.32,0,0,0-1.15.76l-4.36,8.52a1.62,1.62,0,0,1-.37.48l-1.59,1.39A2.14,2.14,0,0,0,20.62,30s.16,9,.16,9.05c0,.19-.13,2.95,2.13,3.43a26.82,26.82,0,0,0,6.14.24c5.65-.15,11.31,0,17,0a24.89,24.89,0,0,0,5.32-.26c.45-.11,2-.65,2.23-3.17.16-2.29.07-7.4,0-9.56A2.17,2.17,0,0,0,52.88,28.12Z"/><circle class="cls-3" cx="26.31" cy="32.31" r="1.81"/><circle class="cls-3" cx="47.99" cy="32.6" r="1.81"/><path class="cls-2" d="M29.84,20.66l-2.61,4.69a.3.3,0,0,0,.27.45H46.7a.3.3,0,0,0,.26-.45l-2.61-4.69a.29.29,0,0,0-.26-.16h-14A.29.29,0,0,0,29.84,20.66Z"/><path class="cls-3" d="M30,43.17a2.63,2.63,0,0,1,.32,1.24,2.94,2.94,0,0,1-5.86,0A2.57,2.57,0,0,1,24.93,43"/><path class="cls-4" d="M31.08,41.75s1.2-9.11,2.55-10.4c1.18-1.13,4.91-1.13,6.29,0s2.36,8.59,2.55,9.95"/><line class="cls-5" x1="31.97" y1="34.35" x2="40.61" y2="34.35"/><path class="cls-6" d="M25.46,37.08a1.64,1.64,0,0,0,1,.67,3.93,3.93,0,0,0,1.08.17c6,.11,12.17.11,18.24,0a3.86,3.86,0,0,0,1.07-.17,1.63,1.63,0,0,0,1-.67"/><path class="cls-3" d="M50.8,25.55l2.25-1.12a.12.12,0,0,1,.17,0l.43.56a.15.15,0,0,1,0,.21l-2.22,1.29Z"/><path class="cls-3" d="M44.82,43.17a2.63,2.63,0,0,0-.32,1.24,2.94,2.94,0,0,0,5.86,0A2.57,2.57,0,0,0,49.93,43"/><path class="cls-3" d="M22.38,25.55l-2.25-1.12a.13.13,0,0,0-.18,0l-.42.56a.15.15,0,0,0,0,.21l2.22,1.29Z"/><rect class="cls-3" x="4.5" y="48" width="65" height="4.54" rx="0.82" ry="0.82"/><rect class="cls-3" x="2" y="58" width="70" height="4.54" rx="0.82" ry="0.82"/><path class="cls-3" d="M59.05,11.36h4.6V8.28a.19.19,0,0,0-.21-.18H59.05a.2.2,0,0,0-.21.18v3.25A.2.2,0,0,1,59.05,11.36Z"/><path class="cls-3" d="M58.84,14.21V56.72a.2.2,0,0,0,.21.18h4.39a.19.19,0,0,0,.21-.18V14.39h-4.6A.2.2,0,0,1,58.84,14.21Z"/><path class="cls-3" d="M59.05,11.36a.2.2,0,0,0-.21.17v2.68a.2.2,0,0,0,.21.18h4.6v-3Z"/><path class="cls-3" d="M15,11.36h-4.6V8.28a.19.19,0,0,1,.21-.18H15a.2.2,0,0,1,.21.18v3.25A.2.2,0,0,0,15,11.36Z"/><path class="cls-3" d="M15.16,14.21V56.72a.2.2,0,0,1-.21.18H10.56a.19.19,0,0,1-.21-.18V14.39H15A.2.2,0,0,0,15.16,14.21Z"/><path class="cls-3" d="M15,11.36a.2.2,0,0,1,.21.17v2.68a.2.2,0,0,1-.21.18h-4.6v-3Z"/></svg>