<svg id="Layer_1" data-name="Layer 1" xmlns="http://www.w3.org/2000/svg" viewBox="0 0 75 75"><defs><style>.cls-1{fill:#fff;}.cls-2{fill:none;stroke:#0047ba;stroke-linecap:round;stroke-linejoin:round;stroke-width:2px;}.cls-3{fill:#0047ba;}</style></defs><title>iconslucknew</title><rect class="cls-1" width="75" height="75"/><line class="cls-2" x1="46.79" y1="32.65" x2="58.87" y2="32.65"/><path class="cls-3" d="M63.92,47.52A5.49,5.49,0,0,1,69.4,53v2.31a5.49,5.49,0,0,1-5.48,5.48H11.08A5.49,5.49,0,0,1,5.6,55.31V53a5.49,5.49,0,0,1,5.48-5.48H63.92m0-2H11.08A7.5,7.5,0,0,0,3.58,53v2.31a7.5,7.5,0,0,0,7.5,7.5H63.92a7.5,7.5,0,0,0,7.5-7.5V53a7.5,7.5,0,0,0-7.5-7.5Z"/><path class="cls-3" d="M58.83,37c-.54.34-1,.09-1-.55V28.28c0-.64.44-.88,1-.55l6.5,4a.65.65,0,0,1,0,1.21Z"/><path class="cls-3" d="M33.81,33.28a1.75,1.75,0,0,0-1.68-1.18h-7a1.67,1.67,0,0,0-1.68,1.17L20.37,43.47a1.71,1.71,0,0,0,.89,2.13,1.48,1.48,0,0,0,2-1L24,42.24s.06-.25.06.81V57.18a2,2,0,1,0,4.08,0V48a.07.07,0,0,1,.07-.08H29a.07.07,0,0,1,.07.08v9.23a2.05,2.05,0,1,0,4.09,0V43.05c0-1.07.09-.73.09-.73l.79,2.31a1.47,1.47,0,0,0,1.95,1,1.69,1.69,0,0,0,.89-2.13Z"/><ellipse class="cls-3" cx="28.68" cy="26.27" rx="4.39" ry="4.71"/><line class="cls-2" x1="47.43" y1="51.86" x2="55.71" y2="51.84"/></svg>