<svg id="Layer_1" data-name="Layer 1" xmlns="http://www.w3.org/2000/svg" viewBox="0 0 75 75"><defs><style>.cls-1{fill:#fff;}.cls-2{fill:#0047ba;}.cls-3,.cls-4{fill:none;stroke:#0047ba;stroke-miterlimit:10;}.cls-3{stroke-width:2px;}.cls-4{stroke-width:1.31px;}</style></defs><title>iconslucknew</title><rect class="cls-1" width="75" height="75"/><path class="cls-1" d="M19.47,62a1.32,1.32,0,0,1-1.3-1.34V12.84a1.32,1.32,0,0,1,1.3-1.34H55.53a1.32,1.32,0,0,1,1.3,1.34V60.66A1.32,1.32,0,0,1,55.53,62Z"/><path class="cls-2" d="M55.53,12.5a.32.32,0,0,1,.3.34V60.66a.32.32,0,0,1-.3.34H19.47a.32.32,0,0,1-.3-.34V12.84a.32.32,0,0,1,.3-.34H55.53m0-2H19.47a2.32,2.32,0,0,0-2.3,2.34V60.66A2.32,2.32,0,0,0,19.47,63H55.53a2.32,2.32,0,0,0,2.3-2.34V12.84a2.32,2.32,0,0,0-2.3-2.34Z"/><path class="cls-2" d="M49.28,18.86a.33.33,0,0,1,.3.34V61H25.42V19.2a.33.33,0,0,1,.3-.34H49.28m0-2H25.72a2.33,2.33,0,0,0-2.3,2.34V63H51.58V19.2a2.33,2.33,0,0,0-2.3-2.34Z"/><path class="cls-2" d="M54.52,38.55c.07.11,0,.2-.12.2H52.64c-.13,0-.19-.09-.12-.2l.87-1.32a.14.14,0,0,1,.26,0Z"/><path class="cls-2" d="M52.52,40c-.07-.11,0-.2.12-.2H54.4c.14,0,.19.09.12.2l-.87,1.32a.14.14,0,0,1-.26,0Z"/><line class="cls-3" x1="30.51" y1="63" x2="30.51" y2="18.81"/><line class="cls-3" x1="44.71" y1="63" x2="44.71" y2="18.81"/><path class="cls-4" d="M43.7,57.52a1,1,0,0,0-.58-.91,6,6,0,0,0-1.6-3.82,5.35,5.35,0,0,0-3-1.63,1,1,0,0,0,0-.3.93.93,0,1,0-1.85,0,1,1,0,0,0,0,.3,5.38,5.38,0,0,0-3,1.63,6,6,0,0,0-1.6,3.82,1,1,0,0,0-.58.91,1,1,0,0,0,.69.95l.21.43a1.75,1.75,0,0,0,1.55.82h7.22a1.76,1.76,0,0,0,1.56-.82l.2-.43A1,1,0,0,0,43.7,57.52Zm-11.19.23a.22.22,0,0,1-.22-.23.23.23,0,0,1,.22-.23H42.77a.23.23,0,0,1,.22.23.22.22,0,0,1-.22.23Zm4.92-6.89a.22.22,0,0,1,.21-.23.22.22,0,0,1,.22.23.23.23,0,0,1-.22.23A.22.22,0,0,1,37.43,50.86ZM41.25,59H34a1.17,1.17,0,0,1-.92-.39l0-.06H42.2l0,.06A1.15,1.15,0,0,1,41.25,59Z"/></svg>