<svg id="Layer_1" data-name="Layer 1" xmlns="http://www.w3.org/2000/svg" viewBox="0 0 75 75"><defs><style>.cls-1{fill:none;stroke:#0047ba;stroke-linecap:round;stroke-linejoin:round;stroke-width:2px;}.cls-2{fill:#0047ba;}</style></defs><title>iconslucknew</title><line class="cls-1" x1="47" y1="38" x2="47" y2="33.44"/><path class="cls-2" d="M55.32,14a.27.27,0,0,1,.27.27V60.73a.27.27,0,0,1-.27.27H19.68a.27.27,0,0,1-.27-.27V14.27a.27.27,0,0,1,.27-.27H55.32m0-2H19.68a2.27,2.27,0,0,0-2.27,2.27V60.73A2.27,2.27,0,0,0,19.68,63H55.32a2.27,2.27,0,0,0,2.27-2.27V14.27A2.27,2.27,0,0,0,55.32,12Z"/><path class="cls-2" d="M49.14,20.18a.28.28,0,0,1,.27.27V61H25.59V20.45a.28.28,0,0,1,.27-.27H49.14m0-2H25.86a2.27,2.27,0,0,0-2.27,2.27V63H51.41V20.45a2.27,2.27,0,0,0-2.27-2.27Z"/><path class="cls-2" d="M54.52,35c.07.12,0,.22-.13.22h-1.8c-.14,0-.19-.1-.12-.22l.89-1.44c.07-.12.19-.12.27,0Z"/><path class="cls-2" d="M52.47,36.57c-.07-.12,0-.22.12-.22h1.8c.14,0,.2.1.13.22L53.63,38c-.08.12-.2.12-.27,0Z"/></svg>